<svg xmlns="http://www.w3.org/2000/svg" viewBox="0 0 205.5 159">
  <defs>
    <style>
      .cls-1 {
        isolation: isolate;
      }

      .cls-2 {
        fill: #dce7f4;
      }

      .cls-3 {
        fill: #2d2b2b;
      }

      .cls-4 {
        fill: #566275;
      }

      .cls-5, .cls-8 {
        fill: #fff;
      }

      .cls-6 {
        fill: #f1f2f2;
      }

      .cls-7 {
        fill: #6c7992;
      }

      .cls-8 {
        mix-blend-mode: soft-light;
      }

      .cls-9 {
        fill: #9eb2c5;
      }

      .cls-10 {
        fill: #ef4868;
      }

      .cls-11 {
        fill: #fbb040;
      }
    </style>
  </defs>
  <g class="cls-1">
    <g id="Livello_1" data-name="Livello 1">
      <g>
        <path class="cls-2" d="M173.14,143.56a87.64,87.64,0,1,0-138.72,0Z"/>
        <g>
          <path class="cls-3" d="M114.45,113.62a1.48,1.48,0,0,1-1.36-.86,1.49,1.49,0,0,1,.71-2,1.56,1.56,0,0,1,2.07.69,1.46,1.46,0,0,1-.66,2l-.12.06A1.48,1.48,0,0,1,114.45,113.62Z"/>
          <g>
            <path class="cls-4" d="M160.34,76.4h-.22l-45.56,35.66-5.68-3.94a8.81,8.81,0,0,0-10,0l-5.8,4L47.4,76.4l13.1-6.83h86.74Z"/>
            <path class="cls-3" d="M93.07,113.62a1.53,1.53,0,0,1-.93-.31L46.47,77.59a1.5,1.5,0,0,1,.24-2.52l13.1-6.83a1.5,1.5,0,0,1,.69-.17h86.74a1.5,1.5,0,0,1,.69.17L161,75.07a1.5,1.5,0,0,1,.77,1.69,1.52,1.52,0,0,1-1.12,1.11l-45.2,35.38a1.5,1.5,0,0,1-1.79,0L108,109.36a7.3,7.3,0,0,0-8.3,0l-5.79,4A1.58,1.58,0,0,1,93.07,113.62Zm-42.9-37,43,33.59L98,106.88a10.31,10.31,0,0,1,11.72,0l4.78,3.31,42.93-33.6-10.57-5.51h-86Z"/>
          </g>
          <g>
            <path class="cls-5" d="M70.34,25.61a4.83,4.83,0,0,0-4.84,4.78V122h-5V30.39a4.79,4.79,0,0,1,4.84-4.78Z"/>
            <path class="cls-6" d="M147.23,47v75H65.5V30.39a4.83,4.83,0,0,1,4.84-4.78h55.51Z"/>
            <path class="cls-3" d="M147.25,123.48H60.5A1.52,1.52,0,0,1,59,122V30.41a6.32,6.32,0,0,1,6.32-6.32h60.54a1.52,1.52,0,0,1,1.07.44l21.4,21.4a1.5,1.5,0,0,1,.44,1.06v75A1.52,1.52,0,0,1,147.25,123.48Zm-85.25-3h83.74V47.62L125.23,27.1H65.31A3.32,3.32,0,0,0,62,30.41Z"/>
            <path class="cls-7" d="M129.4,29.15l-3.55-3.54V42.2A4.77,4.77,0,0,0,130.63,47h16.6Z"/>
            <path class="cls-8" d="M134.23,47h-3.6a4.77,4.77,0,0,1-4.78-4.78V25.61l3.55,3.54V42.2A4.82,4.82,0,0,0,134.23,47Z"/>
            <path class="cls-3" d="M147.25,48.5H130.66a6.32,6.32,0,0,1-6.31-6.31V25.6a1.5,1.5,0,0,1,2.57-1.07l21.4,21.4a1.5,1.5,0,0,1-1.07,2.57ZM127.36,29.24v13a3.31,3.31,0,0,0,3.3,3.3h13Z"/>
            <path class="cls-9" d="M107.47,59.79H78.59a1.51,1.51,0,0,1,0-3h28.88a1.51,1.51,0,1,1,0,3Z"/>
            <path class="cls-9" d="M115.56,71.08h-37a1.51,1.51,0,1,1,0-3h37a1.51,1.51,0,1,1,0,3Z"/>
            <path class="cls-9" d="M129.16,82.38H78.59a1.51,1.51,0,0,1,0-3h50.57a1.51,1.51,0,0,1,0,3Z"/>
            <path class="cls-9" d="M129.16,93.67H78.59a1.51,1.51,0,1,1,0-3h50.57a1.51,1.51,0,0,1,0,3Z"/>
            <circle class="cls-10" cx="82.7" cy="42.64" r="6.86"/>
          </g>
          <path class="cls-7" d="M93.07,112.12l-43.53,30a6.09,6.09,0,0,1-2.14-4.61V76.4Z"/>
          <path class="cls-8" d="M52.57,140l-3,2.08a6.09,6.09,0,0,1-2.14-4.61V76.4L52,80v57.49A6.53,6.53,0,0,0,52.57,140Z"/>
          <path class="cls-3" d="M49.54,143.6a1.47,1.47,0,0,1-1-.37,7.59,7.59,0,0,1-2.66-5.74V76.4a1.5,1.5,0,0,1,.85-1.35,1.52,1.52,0,0,1,1.59.16L94,110.93a1.52,1.52,0,0,1,.58,1.23,1.54,1.54,0,0,1-.65,1.2l-43.54,30A1.54,1.54,0,0,1,49.54,143.6Zm-.63-64.11v58a4.5,4.5,0,0,0,.84,2.63L90.53,112Z"/>
          <g>
            <path class="cls-7" d="M160.34,76.4v61.09a6.11,6.11,0,0,1-2.13,4.61l-43.65-30L160.12,76.4Z"/>
            <path class="cls-3" d="M158.21,143.6a1.58,1.58,0,0,1-.86-.26l-43.65-30a1.55,1.55,0,0,1-.65-1.2,1.53,1.53,0,0,1,.58-1.24l45.56-35.66a1.75,1.75,0,0,1,2.66,1.19v61.09a7.62,7.62,0,0,1-2.65,5.74A1.51,1.51,0,0,1,158.21,143.6ZM117.1,112,158,140.12a4.51,4.51,0,0,0,.85-2.63V79.32Z"/>
          </g>
          <path class="cls-7" d="M158.21,142.1a6.07,6.07,0,0,1-3.94,1.46H53.47a6.06,6.06,0,0,1-3.93-1.46l43.53-30,5.8-4a8.81,8.81,0,0,1,10,0l5.68,3.94Z"/>
          <path class="cls-8" d="M107.64,107.45a5.52,5.52,0,0,0-1.24.67l-5.79,4-43.54,30A6.07,6.07,0,0,0,61,143.56H53.47a6.06,6.06,0,0,1-3.93-1.46l43.53-30,5.8-4A8.77,8.77,0,0,1,107.64,107.45Z"/>
          <path class="cls-3" d="M154.27,145.07H53.47a7.53,7.53,0,0,1-4.9-1.82,1.51,1.51,0,0,1,.11-2.4l49.33-34a10.31,10.31,0,0,1,11.72,0l5.69,4,43.64,30a1.5,1.5,0,0,1,.65,1.18,1.48,1.48,0,0,1-.53,1.22A7.58,7.58,0,0,1,154.27,145.07ZM52.43,141.93a4.55,4.55,0,0,0,1,.12h100.8a4.55,4.55,0,0,0,1-.12L108,109.36a7.3,7.3,0,0,0-8.3,0Z"/>
          <path class="cls-3" d="M56.38,145.07H16.58a1.51,1.51,0,0,1,0-3h39.8a1.51,1.51,0,0,1,0,3Z"/>
          <path class="cls-3" d="M179.46,145.07H143.23a1.51,1.51,0,1,1,0-3h36.23a1.51,1.51,0,0,1,0,3Z"/>
          <path class="cls-3" d="M193.7,145.07h-8a1.51,1.51,0,1,1,0-3h8a1.51,1.51,0,1,1,0,3Z"/>
        </g>
        <g>
          <path class="cls-3" d="M154.52,156.5H38.79a1.51,1.51,0,1,1,0-3H154.52a1.51,1.51,0,0,1,0,3Z"/>
          <path class="cls-3" d="M171.5,156.5H161.12a1.51,1.51,0,1,1,0-3H171.5a1.51,1.51,0,0,1,0,3Z"/>
        </g>
        <path class="cls-11" d="M48.37,56.87a9.24,9.24,0,0,0-4.51,4.51,1.23,1.23,0,0,1-2.19,0,9.24,9.24,0,0,0-4.51-4.51,1.23,1.23,0,0,1,0-2.19,9.24,9.24,0,0,0,4.51-4.51,1.23,1.23,0,0,1,2.19,0,9.24,9.24,0,0,0,4.51,4.51A1.23,1.23,0,0,1,48.37,56.87Z"/>
        <path class="cls-11" d="M9.55,104.44A6.26,6.26,0,0,0,6.5,107.5a.84.84,0,0,1-1.49,0,6.26,6.26,0,0,0-3-3.06A.83.83,0,0,1,2,103a6.24,6.24,0,0,0,3.05-3,.84.84,0,0,1,1.49,0,6.24,6.24,0,0,0,3.05,3A.83.83,0,0,1,9.55,104.44Z"/>
        <path class="cls-11" d="M203.54,114.25a6.24,6.24,0,0,0-3,3,.84.84,0,0,1-1.49,0,6.2,6.2,0,0,0-3.05-3,.84.84,0,0,1,0-1.49,6.2,6.2,0,0,0,3.05-3.05.84.84,0,0,1,1.49,0,6.24,6.24,0,0,0,3,3.05A.84.84,0,0,1,203.54,114.25Z"/>
        <path class="cls-11" d="M177.36,63.47a6.32,6.32,0,0,0-3.06,3.06.83.83,0,0,1-1.48,0,6.32,6.32,0,0,0-3.06-3.06.83.83,0,0,1,0-1.48,6.32,6.32,0,0,0,3.06-3.06.83.83,0,0,1,1.48,0A6.32,6.32,0,0,0,177.36,62,.83.83,0,0,1,177.36,63.47Z"/>
      </g>
    </g>
  </g>
</svg>
